<svg xmlns="http://www.w3.org/2000/svg" xmlns:xlink="http://www.w3.org/1999/xlink" width="1080" zoomAndPan="magnify" viewBox="0 0 810 809.999993" height="1080" preserveAspectRatio="xMidYMid meet" version="1.0"><defs><clipPath id="40bc4cff7a"><path d="M 141.75 220 L 589 220 L 589 668 L 141.75 668 Z M 141.75 220 " clip-rule="nonzero"/></clipPath></defs><path fill="#ffffff" d="M 297.683594 516.433594 C 295.496094 516.433594 293.390625 515.554688 291.816406 513.980469 C 289.625 511.703125 288.835938 508.460938 289.800781 505.394531 L 335.707031 369.871094 C 336.582031 367.15625 338.859375 365.050781 341.664062 364.4375 C 344.464844 363.738281 347.445312 364.613281 349.460938 366.628906 L 439.078125 456.511719 C 441.09375 458.527344 441.96875 461.503906 441.269531 464.308594 C 440.566406 467.109375 438.550781 469.390625 435.835938 470.265625 L 300.226562 515.996094 C 299.347656 516.257812 298.472656 516.433594 297.597656 516.433594 Z M 347.269531 387.917969 L 311 494.882812 L 417.964844 458.875 L 347.269531 388.003906 Z M 347.269531 387.917969 " fill-opacity="1" fill-rule="nonzero"/><path fill="#ffffff" d="M 433.296875 470.703125 C 431.105469 470.703125 429.003906 469.828125 427.425781 468.25 L 337.808594 378.367188 C 334.566406 375.128906 334.566406 369.871094 337.808594 366.628906 L 548.320312 156.292969 C 557.167969 147.269531 569.082031 142.277344 581.871094 142.277344 C 594.664062 142.277344 606.578125 147.269531 615.511719 156.292969 L 649.679688 190.28125 C 658.789062 199.394531 663.695312 211.484375 663.695312 224.273438 C 663.695312 236.976562 658.613281 248.890625 649.679688 257.738281 L 439.164062 468.25 C 437.589844 469.828125 435.484375 470.703125 433.296875 470.703125 Z M 355.417969 372.5 L 433.296875 450.640625 L 638.027344 246 C 643.894531 240.21875 647.136719 232.507812 647.136719 224.273438 C 647.136719 215.863281 643.894531 208.066406 638.027344 202.109375 L 603.773438 168.117188 C 592.121094 156.292969 571.710938 156.378906 560.148438 168.117188 L 355.417969 372.585938 Z M 355.417969 372.5 " fill-opacity="1" fill-rule="nonzero"/><path fill="#ffffff" d="M 619.28125 284.71875 C 617.089844 284.71875 614.988281 283.84375 613.410156 282.265625 L 523.789062 192.386719 C 522.214844 190.808594 521.339844 188.707031 521.339844 186.515625 C 521.339844 184.324219 522.214844 182.222656 523.789062 180.644531 L 548.40625 156.292969 C 557.253906 147.355469 569.167969 142.363281 581.960938 142.363281 C 594.75 142.363281 606.664062 147.355469 615.601562 156.378906 L 649.765625 190.371094 C 668.335938 208.941406 668.335938 239.164062 649.765625 257.738281 L 625.148438 282.355469 C 623.570312 283.929688 621.46875 284.808594 619.28125 284.808594 Z M 541.398438 186.515625 L 619.28125 264.570312 L 637.9375 245.910156 C 650.027344 233.820312 650.027344 214.109375 637.9375 202.023438 L 603.6875 168.03125 C 592.035156 156.203125 571.621094 156.292969 560.058594 168.03125 L 541.3125 186.601562 Z M 541.398438 186.515625 " fill-opacity="1" fill-rule="nonzero"/><g clip-path="url(#40bc4cff7a)"><path fill="#ffffff" d="M 534.128906 667.636719 L 196.675781 667.636719 C 166.453125 667.636719 141.925781 643.195312 141.925781 613.148438 L 141.925781 275.433594 C 141.925781 245.386719 166.453125 220.945312 196.675781 220.945312 L 430.316406 220.945312 C 434.871094 220.945312 438.640625 224.710938 438.640625 229.265625 C 438.640625 233.820312 434.960938 237.589844 430.316406 237.589844 L 196.675781 237.589844 C 175.652344 237.589844 158.570312 254.582031 158.570312 275.433594 L 158.570312 613.148438 C 158.570312 633.996094 175.652344 650.992188 196.675781 650.992188 L 534.128906 650.992188 C 555.152344 650.992188 572.234375 633.996094 572.234375 613.148438 L 572.234375 373.550781 C 572.234375 368.996094 575.914062 365.226562 580.558594 365.226562 C 585.203125 365.226562 588.878906 368.996094 588.878906 373.550781 L 588.878906 613.148438 C 588.878906 643.195312 564.351562 667.636719 534.128906 667.636719 Z M 534.128906 667.636719 " fill-opacity="1" fill-rule="nonzero"/></g></svg>