<svg xmlns="http://www.w3.org/2000/svg" xmlns:xlink="http://www.w3.org/1999/xlink" width="1080" zoomAndPan="magnify" viewBox="0 0 810 809.999993" height="1080" preserveAspectRatio="xMidYMid meet" version="1.0"><defs><clipPath id="9521a8b846"><path d="M 150.417969 111.109375 L 659 111.109375 L 659 699 L 150.417969 699 Z M 150.417969 111.109375 " clip-rule="nonzero"/></clipPath></defs><g clip-path="url(#9521a8b846)"><path fill="#ffffff" d="M 618.132812 174.746094 L 533.414062 174.746094 L 533.414062 162.652344 C 533.414062 134.28125 510.332031 111.203125 481.964844 111.203125 L 327.378906 111.203125 C 299.007812 111.203125 275.925781 134.28125 275.925781 162.652344 L 275.925781 174.746094 L 191.210938 174.746094 C 169.015625 174.746094 150.953125 192.804688 150.953125 214.996094 L 150.953125 234.082031 C 150.953125 254.855469 166.777344 272 186.996094 274.113281 L 228.449219 637.859375 C 232.398438 672.59375 261.753906 698.789062 296.722656 698.789062 L 512.613281 698.789062 C 547.578125 698.789062 576.933594 672.59375 580.886719 637.859375 L 622.335938 274.113281 C 642.5625 272.003906 658.382812 254.855469 658.382812 234.082031 L 658.382812 214.996094 C 658.382812 192.804688 640.316406 174.746094 618.125 174.746094 Z M 302.058594 162.652344 C 302.058594 148.683594 313.414062 137.324219 327.382812 137.324219 L 481.96875 137.324219 C 495.9375 137.324219 507.296875 148.683594 507.296875 162.652344 L 507.296875 174.746094 L 302.058594 174.746094 Z M 554.9375 634.898438 C 552.488281 656.429688 534.292969 672.667969 512.625 672.667969 L 296.734375 672.667969 C 275.066406 672.667969 256.871094 656.429688 254.421875 634.898438 L 213.335938 274.335938 L 596.03125 274.335938 L 554.945312 634.898438 Z M 632.269531 234.082031 C 632.269531 241.871094 625.929688 248.214844 618.136719 248.214844 L 191.210938 248.214844 C 183.417969 248.214844 177.078125 241.871094 177.078125 234.082031 L 177.078125 214.996094 C 177.078125 207.210938 183.417969 200.871094 191.210938 200.871094 L 618.125 200.871094 C 625.917969 200.871094 632.257812 207.210938 632.257812 214.996094 L 632.257812 234.082031 Z M 632.269531 234.082031 " fill-opacity="1" fill-rule="nonzero"/></g><path fill="#ffffff" d="M 404.671875 601.96875 C 411.878906 601.96875 417.730469 596.117188 417.730469 588.910156 L 417.730469 358.09375 C 417.730469 350.886719 411.878906 345.035156 404.671875 345.035156 C 397.460938 345.035156 391.609375 350.886719 391.609375 358.09375 L 391.609375 588.910156 C 391.609375 596.117188 397.460938 601.96875 404.671875 601.96875 Z M 404.671875 601.96875 " fill-opacity="1" fill-rule="nonzero"/><path fill="#ffffff" d="M 482.753906 601.363281 C 483.183594 601.410156 483.617188 601.429688 484.035156 601.429688 C 490.683594 601.429688 496.363281 596.386719 497.015625 589.632812 L 519.390625 359.902344 C 520.089844 352.71875 514.839844 346.332031 507.660156 345.632812 C 500.378906 344.894531 494.089844 350.1875 493.390625 357.363281 L 471.015625 587.09375 C 470.320312 594.277344 475.570312 600.664062 482.746094 601.363281 Z M 482.753906 601.363281 " fill-opacity="1" fill-rule="nonzero"/><path fill="#ffffff" d="M 325.308594 601.429688 C 325.726562 601.429688 326.15625 601.410156 326.585938 601.363281 C 333.765625 600.671875 339.015625 594.277344 338.316406 587.09375 L 315.941406 357.363281 C 315.242188 350.1875 308.953125 344.902344 301.671875 345.632812 C 294.496094 346.328125 289.242188 352.71875 289.941406 359.902344 L 312.316406 589.632812 C 312.976562 596.378906 318.660156 601.429688 325.300781 601.429688 Z M 325.308594 601.429688 " fill-opacity="1" fill-rule="nonzero"/></svg>